<?xml version="1.0" standalone="yes"?><svg xmlns="http://www.w3.org/2000/svg" version="1.1" width="328" height="328" viewBox="0 0 328 328" shape-rendering="crispEdges"><rect x="0" y="0" width="328" height="328" fill="#fff"/><path fill="#000" d="M32 32h8v8H32V32M40 32h8v8H40V32M48 32h8v8H48V32M56 32h8v8H56V32M64 32h8v8H64V32M72 32h8v8H72V32M80 32h8v8H80V32M120 32h8v8H120V32M136 32h8v8H136V32M144 32h8v8H144V32M160 32h8v8H160V32M176 32h8v8H176V32M184 32h8v8H184V32M192 32h8v8H192V32M208 32h8v8H208V32M216 32h8v8H216V32M224 32h8v8H224V32M240 32h8v8H240V32M248 32h8v8H248V32M256 32h8v8H256V32M264 32h8v8H264V32M272 32h8v8H272V32M280 32h8v8H280V32M288 32h8v8H288V32M32 40h8v8H32V40M80 40h8v8H80V40M128 40h8v8H128V40M136 40h8v8H136V40M144 40h8v8H144V40M152 40h8v8H152V40M160 40h8v8H160V40M176 40h8v8H176V40M192 40h8v8H192V40M208 40h8v8H208V40M240 40h8v8H240V40M288 40h8v8H288V40M32 48h8v8H32V48M48 48h8v8H48V48M56 48h8v8H56V48M64 48h8v8H64V48M80 48h8v8H80V48M96 48h8v8H96V48M120 48h8v8H120V48M136 48h8v8H136V48M152 48h8v8H152V48M176 48h8v8H176V48M192 48h8v8H192V48M200 48h8v8H200V48M208 48h8v8H208V48M224 48h8v8H224V48M240 48h8v8H240V48M256 48h8v8H256V48M264 48h8v8H264V48M272 48h8v8H272V48M288 48h8v8H288V48M32 56h8v8H32V56M48 56h8v8H48V56M56 56h8v8H56V56M64 56h8v8H64V56M80 56h8v8H80V56M96 56h8v8H96V56M104 56h8v8H104V56M112 56h8v8H112V56M120 56h8v8H120V56M128 56h8v8H128V56M144 56h8v8H144V56M152 56h8v8H152V56M160 56h8v8H160V56M168 56h8v8H168V56M176 56h8v8H176V56M192 56h8v8H192V56M208 56h8v8H208V56M224 56h8v8H224V56M240 56h8v8H240V56M256 56h8v8H256V56M264 56h8v8H264V56M272 56h8v8H272V56M288 56h8v8H288V56M32 64h8v8H32V64M48 64h8v8H48V64M56 64h8v8H56V64M64 64h8v8H64V64M80 64h8v8H80V64M96 64h8v8H96V64M112 64h8v8H112V64M152 64h8v8H152V64M176 64h8v8H176V64M184 64h8v8H184V64M192 64h8v8H192V64M216 64h8v8H216V64M240 64h8v8H240V64M256 64h8v8H256V64M264 64h8v8H264V64M272 64h8v8H272V64M288 64h8v8H288V64M32 72h8v8H32V72M80 72h8v8H80V72M96 72h8v8H96V72M104 72h8v8H104V72M120 72h8v8H120V72M128 72h8v8H128V72M136 72h8v8H136V72M152 72h8v8H152V72M160 72h8v8H160V72M168 72h8v8H168V72M176 72h8v8H176V72M200 72h8v8H200V72M224 72h8v8H224V72M240 72h8v8H240V72M288 72h8v8H288V72M32 80h8v8H32V80M40 80h8v8H40V80M48 80h8v8H48V80M56 80h8v8H56V80M64 80h8v8H64V80M72 80h8v8H72V80M80 80h8v8H80V80M96 80h8v8H96V80M112 80h8v8H112V80M128 80h8v8H128V80M144 80h8v8H144V80M160 80h8v8H160V80M176 80h8v8H176V80M192 80h8v8H192V80M208 80h8v8H208V80M224 80h8v8H224V80M240 80h8v8H240V80M248 80h8v8H248V80M256 80h8v8H256V80M264 80h8v8H264V80M272 80h8v8H272V80M280 80h8v8H280V80M288 80h8v8H288V80M96 88h8v8H96V88M104 88h8v8H104V88M128 88h8v8H128V88M152 88h8v8H152V88M176 88h8v8H176V88M184 88h8v8H184V88M200 88h8v8H200V88M216 88h8v8H216V88M224 88h8v8H224V88M32 96h8v8H32V96M48 96h8v8H48V96M56 96h8v8H56V96M64 96h8v8H64V96M72 96h8v8H72V96M80 96h8v8H80V96M104 96h8v8H104V96M112 96h8v8H112V96M136 96h8v8H136V96M144 96h8v8H144V96M152 96h8v8H152V96M168 96h8v8H168V96M176 96h8v8H176V96M192 96h8v8H192V96M224 96h8v8H224V96M240 96h8v8H240V96M248 96h8v8H248V96M256 96h8v8H256V96M264 96h8v8H264V96M272 96h8v8H272V96M48 104h8v8H48V104M56 104h8v8H56V104M64 104h8v8H64V104M96 104h8v8H96V104M120 104h8v8H120V104M160 104h8v8H160V104M168 104h8v8H168V104M176 104h8v8H176V104M184 104h8v8H184V104M192 104h8v8H192V104M208 104h8v8H208V104M216 104h8v8H216V104M240 104h8v8H240V104M248 104h8v8H248V104M264 104h8v8H264V104M272 104h8v8H272V104M280 104h8v8H280V104M288 104h8v8H288V104M32 112h8v8H32V112M56 112h8v8H56V112M72 112h8v8H72V112M80 112h8v8H80V112M88 112h8v8H88V112M96 112h8v8H96V112M128 112h8v8H128V112M152 112h8v8H152V112M160 112h8v8H160V112M168 112h8v8H168V112M200 112h8v8H200V112M208 112h8v8H208V112M240 112h8v8H240V112M256 112h8v8H256V112M272 112h8v8H272V112M280 112h8v8H280V112M32 120h8v8H32V120M56 120h8v8H56V120M64 120h8v8H64V120M112 120h8v8H112V120M144 120h8v8H144V120M152 120h8v8H152V120M160 120h8v8H160V120M200 120h8v8H200V120M208 120h8v8H208V120M232 120h8v8H232V120M256 120h8v8H256V120M264 120h8v8H264V120M272 120h8v8H272V120M32 128h8v8H32V128M40 128h8v8H40V128M56 128h8v8H56V128M64 128h8v8H64V128M80 128h8v8H80V128M88 128h8v8H88V128M112 128h8v8H112V128M152 128h8v8H152V128M176 128h8v8H176V128M184 128h8v8H184V128M192 128h8v8H192V128M216 128h8v8H216V128M232 128h8v8H232V128M248 128h8v8H248V128M256 128h8v8H256V128M264 128h8v8H264V128M280 128h8v8H280V128M48 136h8v8H48V136M64 136h8v8H64V136M72 136h8v8H72V136M104 136h8v8H104V136M112 136h8v8H112V136M120 136h8v8H120V136M128 136h8v8H128V136M136 136h8v8H136V136M144 136h8v8H144V136M152 136h8v8H152V136M160 136h8v8H160V136M168 136h8v8H168V136M176 136h8v8H176V136M184 136h8v8H184V136M192 136h8v8H192V136M200 136h8v8H200V136M216 136h8v8H216V136M240 136h8v8H240V136M272 136h8v8H272V136M280 136h8v8H280V136M288 136h8v8H288V136M32 144h8v8H32V144M40 144h8v8H40V144M64 144h8v8H64V144M80 144h8v8H80V144M88 144h8v8H88V144M96 144h8v8H96V144M144 144h8v8H144V144M168 144h8v8H168V144M192 144h8v8H192V144M200 144h8v8H200V144M208 144h8v8H208V144M224 144h8v8H224V144M232 144h8v8H232V144M240 144h8v8H240V144M264 144h8v8H264V144M280 144h8v8H280V144M40 152h8v8H40V152M48 152h8v8H48V152M72 152h8v8H72V152M88 152h8v8H88V152M112 152h8v8H112V152M120 152h8v8H120V152M136 152h8v8H136V152M144 152h8v8H144V152M160 152h8v8H160V152M176 152h8v8H176V152M200 152h8v8H200V152M216 152h8v8H216V152M232 152h8v8H232V152M240 152h8v8H240V152M256 152h8v8H256V152M272 152h8v8H272V152M48 160h8v8H48V160M64 160h8v8H64V160M80 160h8v8H80V160M88 160h8v8H88V160M96 160h8v8H96V160M112 160h8v8H112V160M136 160h8v8H136V160M144 160h8v8H144V160M168 160h8v8H168V160M224 160h8v8H224V160M232 160h8v8H232V160M248 160h8v8H248V160M256 160h8v8H256V160M288 160h8v8H288V160M48 168h8v8H48V168M56 168h8v8H56V168M64 168h8v8H64V168M72 168h8v8H72V168M88 168h8v8H88V168M96 168h8v8H96V168M104 168h8v8H104V168M112 168h8v8H112V168M120 168h8v8H120V168M160 168h8v8H160V168M168 168h8v8H168V168M176 168h8v8H176V168M184 168h8v8H184V168M192 168h8v8H192V168M216 168h8v8H216V168M240 168h8v8H240V168M248 168h8v8H248V168M264 168h8v8H264V168M272 168h8v8H272V168M280 168h8v8H280V168M288 168h8v8H288V168M32 176h8v8H32V176M56 176h8v8H56V176M72 176h8v8H72V176M80 176h8v8H80V176M88 176h8v8H88V176M96 176h8v8H96V176M128 176h8v8H128V176M144 176h8v8H144V176M152 176h8v8H152V176M168 176h8v8H168V176M200 176h8v8H200V176M208 176h8v8H208V176M232 176h8v8H232V176M240 176h8v8H240V176M248 176h8v8H248V176M256 176h8v8H256V176M272 176h8v8H272V176M280 176h8v8H280V176M40 184h8v8H40V184M48 184h8v8H48V184M64 184h8v8H64V184M88 184h8v8H88V184M104 184h8v8H104V184M120 184h8v8H120V184M128 184h8v8H128V184M152 184h8v8H152V184M160 184h8v8H160V184M168 184h8v8H168V184M176 184h8v8H176V184M192 184h8v8H192V184M200 184h8v8H200V184M208 184h8v8H208V184M216 184h8v8H216V184M240 184h8v8H240V184M248 184h8v8H248V184M256 184h8v8H256V184M264 184h8v8H264V184M272 184h8v8H272V184M280 184h8v8H280V184M40 192h8v8H40V192M48 192h8v8H48V192M56 192h8v8H56V192M72 192h8v8H72V192M80 192h8v8H80V192M104 192h8v8H104V192M112 192h8v8H112V192M144 192h8v8H144V192M160 192h8v8H160V192M208 192h8v8H208V192M216 192h8v8H216V192M224 192h8v8H224V192M232 192h8v8H232V192M248 192h8v8H248V192M256 192h8v8H256V192M264 192h8v8H264V192M280 192h8v8H280V192M288 192h8v8H288V192M32 200h8v8H32V200M56 200h8v8H56V200M72 200h8v8H72V200M88 200h8v8H88V200M104 200h8v8H104V200M112 200h8v8H112V200M144 200h8v8H144V200M152 200h8v8H152V200M168 200h8v8H168V200M176 200h8v8H176V200M184 200h8v8H184V200M192 200h8v8H192V200M216 200h8v8H216V200M240 200h8v8H240V200M264 200h8v8H264V200M288 200h8v8H288V200M32 208h8v8H32V208M56 208h8v8H56V208M80 208h8v8H80V208M112 208h8v8H112V208M120 208h8v8H120V208M136 208h8v8H136V208M144 208h8v8H144V208M152 208h8v8H152V208M160 208h8v8H160V208M176 208h8v8H176V208M208 208h8v8H208V208M232 208h8v8H232V208M256 208h8v8H256V208M264 208h8v8H264V208M272 208h8v8H272V208M280 208h8v8H280V208M32 216h8v8H32V216M48 216h8v8H48V216M56 216h8v8H56V216M72 216h8v8H72V216M96 216h8v8H96V216M104 216h8v8H104V216M112 216h8v8H112V216M128 216h8v8H128V216M136 216h8v8H136V216M152 216h8v8H152V216M200 216h8v8H200V216M232 216h8v8H232V216M240 216h8v8H240V216M256 216h8v8H256V216M264 216h8v8H264V216M272 216h8v8H272V216M288 216h8v8H288V216M32 224h8v8H32V224M56 224h8v8H56V224M64 224h8v8H64V224M72 224h8v8H72V224M80 224h8v8H80V224M104 224h8v8H104V224M152 224h8v8H152V224M168 224h8v8H168V224M184 224h8v8H184V224M192 224h8v8H192V224M208 224h8v8H208V224M216 224h8v8H216V224M224 224h8v8H224V224M232 224h8v8H232V224M240 224h8v8H240V224M248 224h8v8H248V224M256 224h8v8H256V224M280 224h8v8H280V224M96 232h8v8H96V232M136 232h8v8H136V232M160 232h8v8H160V232M176 232h8v8H176V232M184 232h8v8H184V232M192 232h8v8H192V232M200 232h8v8H200V232M224 232h8v8H224V232M256 232h8v8H256V232M272 232h8v8H272V232M288 232h8v8H288V232M32 240h8v8H32V240M40 240h8v8H40V240M48 240h8v8H48V240M56 240h8v8H56V240M64 240h8v8H64V240M72 240h8v8H72V240M80 240h8v8H80V240M112 240h8v8H112V240M152 240h8v8H152V240M160 240h8v8H160V240M176 240h8v8H176V240M192 240h8v8H192V240M216 240h8v8H216V240M224 240h8v8H224V240M240 240h8v8H240V240M256 240h8v8H256V240M272 240h8v8H272V240M32 248h8v8H32V248M80 248h8v8H80V248M96 248h8v8H96V248M112 248h8v8H112V248M128 248h8v8H128V248M136 248h8v8H136V248M160 248h8v8H160V248M200 248h8v8H200V248M208 248h8v8H208V248M216 248h8v8H216V248M224 248h8v8H224V248M256 248h8v8H256V248M264 248h8v8H264V248M272 248h8v8H272V248M288 248h8v8H288V248M32 256h8v8H32V256M48 256h8v8H48V256M56 256h8v8H56V256M64 256h8v8H64V256M80 256h8v8H80V256M96 256h8v8H96V256M120 256h8v8H120V256M128 256h8v8H128V256M176 256h8v8H176V256M184 256h8v8H184V256M208 256h8v8H208V256M224 256h8v8H224V256M232 256h8v8H232V256M240 256h8v8H240V256M248 256h8v8H248V256M256 256h8v8H256V256M264 256h8v8H264V256M280 256h8v8H280V256M288 256h8v8H288V256M32 264h8v8H32V264M48 264h8v8H48V264M56 264h8v8H56V264M64 264h8v8H64V264M80 264h8v8H80V264M96 264h8v8H96V264M128 264h8v8H128V264M152 264h8v8H152V264M160 264h8v8H160V264M168 264h8v8H168V264M184 264h8v8H184V264M192 264h8v8H192V264M200 264h8v8H200V264M208 264h8v8H208V264M232 264h8v8H232V264M256 264h8v8H256V264M272 264h8v8H272V264M280 264h8v8H280V264M288 264h8v8H288V264M32 272h8v8H32V272M48 272h8v8H48V272M56 272h8v8H56V272M64 272h8v8H64V272M80 272h8v8H80V272M96 272h8v8H96V272M112 272h8v8H112V272M144 272h8v8H144V272M168 272h8v8H168V272M192 272h8v8H192V272M208 272h8v8H208V272M224 272h8v8H224V272M232 272h8v8H232V272M240 272h8v8H240V272M248 272h8v8H248V272M264 272h8v8H264V272M32 280h8v8H32V280M80 280h8v8H80V280M104 280h8v8H104V280M120 280h8v8H120V280M160 280h8v8H160V280M184 280h8v8H184V280M200 280h8v8H200V280M208 280h8v8H208V280M232 280h8v8H232V280M256 280h8v8H256V280M264 280h8v8H264V280M272 280h8v8H272V280M32 288h8v8H32V288M40 288h8v8H40V288M48 288h8v8H48V288M56 288h8v8H56V288M64 288h8v8H64V288M72 288h8v8H72V288M80 288h8v8H80V288M96 288h8v8H96V288M120 288h8v8H120V288M144 288h8v8H144V288M168 288h8v8H168V288M176 288h8v8H176V288M208 288h8v8H208V288M224 288h8v8H224V288M232 288h8v8H232V288M240 288h8v8H240V288M248 288h8v8H248V288M280 288h8v8H280V288"/></svg>
